PathFileType	4	(X/Y/Z)	c:/Users/goper/Files/vsCode/490R/osim_files/A06/A06_Fast_06.trc
DataRate	CameraRate	NumFrames	NumMarkers	Units                	OrigDataRate	OrigDataStartFrame	OrigNumFrames
120.00	120.00	10	36	mm	120.0	676	1081
                Frame#	Time	LPSIS			LASIS			LTH1			LTH2			LTH3			LTH4			LLFE			LMFE			LSH1			LSH2			LSH3			LSH4			LLMAL			LMMAL			LCAL			LMTP5			LTOE			LMTP1			RPSIS			RASIS			RTH1			RTH2			RTH3			RTH4			RLFE			RMFE			RSH1			RSH2			RSH3			RSH4			RLMAL			RMMAL			RCAL			RMTP1			RTOE			RMTP5		
		X1	Y1	Z1	X2	Y2	Z2	X3	Y3	Z3	X4	Y4	Z4	X5	Y5	Z5	X6	Y6	Z6	X7	Y7	Z7	X8	Y8	Z8	X9	Y9	Z9	X10	Y10	Z10	X11	Y11	Z11	X12	Y12	Z12	X13	Y13	Z13	X14	Y14	Z14	X15	Y15	Z15	X16	Y16	Z16	X17	Y17	Z17	X18	Y18	Z18	X19	Y19	Z19	X20	Y20	Z20	X21	Y21	Z21	X22	Y22	Z22	X23	Y23	Z23	X24	Y24	Z24	X25	Y25	Z25	X26	Y26	Z26	X27	Y27	Z27	X28	Y28	Z28	X29	Y29	Z29	X30	Y30	Z30	X31	Y31	Z31	X32	Y32	Z32	X33	Y33	Z33	X34	Y34	Z34	X35	Y35	Z35	X36	Y36	Z36

676	5.62500	-3295.42358	989.45575	216.65150	-3485.74121	937.09467	295.23868	-3512.37646	578.21527	329.34982	-3527.81372	537.15283	320.87930	-3567.04028	605.36487	323.53534	-3580.50024	565.26758	317.98685	-3588.31494	492.89081	304.76410	-3592.11670	490.57919	197.43286	-3567.90820	389.51340	320.98279	-3586.65112	349.39511	322.42255	-3622.31519	412.14615	314.09134	-3635.54492	373.19955	320.09967	-3686.43921	111.76965	281.31677	-3704.81055	132.64540	202.84291	0.00000	0.00000	0.00000	-3810.87378	106.55933	305.12366	0.00000	0.00000	0.00000	0.00000	0.00000	0.00000	-3303.89771	1005.73828	84.64968	-3485.88647	956.80890	37.69595	0.00000	0.00000	0.00000	-3300.72437	556.18390	-0.53725	-3364.51221	586.03821	10.14624	-3350.33911	543.31537	7.24821	-3293.97729	439.96408	27.64732	-3296.58179	441.99170	116.23928	-3291.86353	276.64545	56.07818	-3274.35693	232.46120	52.48753	-3235.95752	293.84677	42.95140	-3225.35815	249.72025	46.30275	-3182.36841	109.41121	42.47259	-3195.57080	112.54863	122.55881	-3123.05542	92.91408	88.56326	-3323.99976	56.82411	115.83994	-3340.74097	66.22672	76.97846	-3313.49292	54.95803	27.77904
677	5.63333	-3306.44409	987.38513	217.81726	-3497.24292	934.84613	295.00040	-3521.90161	575.45294	328.58951	-3537.32373	534.41205	320.20776	-3576.49902	602.56519	322.99860	-3589.91504	562.47571	317.40292	-3598.18262	490.28830	304.12418	-3601.33594	488.10770	196.54564	-3580.84570	387.03952	320.74170	-3600.61060	347.39056	322.07129	-3634.36597	411.21396	313.63843	-3648.89087	372.45404	319.66373	-3707.42188	112.21029	280.98724	-3726.15601	134.23755	202.85939	0.00000	0.00000	0.00000	-3832.19995	111.80055	306.09125	-3832.76758	126.57597	232.19212	0.00000	0.00000	0.00000	-3313.77905	1004.56866	85.82818	-3495.66504	955.93475	37.50792	0.00000	0.00000	0.00000	-3309.76514	555.60925	-0.72820	-3372.03516	584.80469	10.09081	-3357.41138	542.33942	7.11513	-3299.60376	439.73169	27.67938	-3302.59863	441.31738	116.52999	-3295.19019	276.46320	56.07677	-3277.03345	232.47981	52.53574	-3239.63208	294.45511	43.04763	-3227.79053	248.83447	45.69321	-3183.15747	110.76327	41.14643	-3196.30542	113.50454	122.60982	-3123.57886	93.82748	88.81679	-3324.32983	56.80134	115.72924	-3340.49512	66.23628	76.35744	-3313.73169	54.98209	27.80613
678	5.64167	-3317.50269	985.17474	218.98694	-3508.83105	932.52533	294.62311	-3531.66724	572.88757	327.81235	-3554.26929	536.42151	320.41190	-3586.35034	600.00360	322.43976	-3599.75439	559.93921	316.91449	-3608.30420	487.90359	303.77454	-3610.74170	485.73239	195.83054	-3593.22021	384.60690	320.39651	-3612.70337	344.35907	320.75140	-3646.18701	410.04056	313.32114	-3661.71509	371.42493	319.40860	-3726.71631	112.48066	280.48630	-3745.27563	135.43127	202.54524	0.00000	0.00000	0.00000	-3851.23169	115.47020	306.47757	0.00000	0.00000	0.00000	-3865.11182	142.50485	218.62624	-3324.49634	1004.28998	87.69190	-3505.63354	955.14001	37.28612	0.00000	0.00000	0.00000	-3319.03101	553.76025	-2.22886	-3379.67505	583.50104	9.89565	-3364.72437	541.40179	6.94123	-3305.28271	439.44833	27.61174	-3308.24561	441.44330	116.20196	-3298.59106	276.30258	56.05954	-3279.80225	232.14484	52.76302	-3243.37354	295.00351	43.01364	-3230.60596	249.39153	45.85267	-3183.23486	110.55016	42.84707	-3197.57129	114.64309	123.65586	-3124.00659	94.60847	89.11261	-3324.55542	56.66087	115.72909	-3340.72632	66.02197	76.32647	-3314.02612	55.05421	27.88095
679	5.65000	-3328.77319	982.97809	220.10956	-3520.39697	930.21338	294.17285	-3541.96436	570.58398	327.05972	-3566.96069	534.46228	321.65375	-3596.78296	597.69928	321.96390	-3610.18115	557.60370	316.47726	-3621.45605	486.56067	306.32217	-3620.57861	483.44363	195.37213	-3605.40308	382.25851	320.05115	-3626.97168	343.59305	321.48663	-3657.96484	408.70914	313.14322	-3674.21704	370.20859	319.14908	-3742.69678	110.70133	280.13660	-3762.30371	136.07188	202.11592	0.00000	0.00000	0.00000	-3868.14673	117.29138	306.37128	-3894.28638	160.61162	259.49585	-3882.29004	144.45445	218.42404	-3334.28735	1001.88123	88.06247	-3515.93237	954.47357	37.06849	0.00000	0.00000	0.00000	-3326.79248	553.20135	-2.41787	-3387.63013	582.23389	9.62282	-3372.24854	540.38843	6.61688	-3311.16602	439.25858	27.48535	-3315.18945	441.90643	116.79258	-3302.19092	276.23822	56.02973	-3283.34009	232.95053	52.43222	-3247.23901	295.63782	43.01914	-3233.90918	250.47023	45.75156	-3183.81079	111.28918	42.99905	-3198.72241	115.26080	124.33880	-3123.79883	95.91924	89.07631	-3324.82983	56.54534	115.74568	-3340.99780	65.84802	76.33072	-3314.31616	55.13616	27.94112
680	5.65833	-3339.96631	980.81494	221.14561	-3532.00684	927.82098	293.64990	-3553.05200	568.49182	326.48871	-3578.18750	532.44183	321.19312	-3607.97363	595.66797	321.36014	-3621.39014	555.55347	315.96231	-3632.34644	484.42606	306.28238	-3631.44434	481.51611	195.20148	-3617.50415	380.22394	319.80414	-3637.74414	341.54526	319.76395	-3669.63745	407.03345	312.90125	-3686.31641	368.63916	318.85223	-3757.46851	109.60112	279.57541	-3776.74194	135.48755	201.63858	0.00000	0.00000	0.00000	-3882.87866	117.28969	305.82587	0.00000	0.00000	0.00000	-3896.62427	145.11304	218.05855	-3344.72974	1000.41534	89.16392	-3526.31152	953.78174	36.79809	0.00000	0.00000	0.00000	-3333.66748	553.16559	-2.59923	-3395.79248	580.82233	9.29300	-3379.86914	539.24933	6.24817	-3317.17896	438.96198	27.31089	-3321.29419	441.64944	116.61813	-3305.90942	276.17664	55.89583	-3286.55151	233.21646	52.29821	-3251.27905	296.33466	42.85259	-3237.31274	251.30495	45.72014	-3184.55688	112.16446	43.06646	-3198.33838	115.24990	123.13058	-3126.27100	96.46712	89.37191	-3325.18750	56.46893	115.76598	-3341.33081	65.55695	76.32153	-3316.89990	56.96663	28.94814
681	5.66667	-3351.39233	978.67950	222.08493	-3543.74951	925.56781	293.19376	-3564.95728	566.73474	325.84814	-3582.30908	532.08752	318.21805	-3619.99097	593.98212	320.68173	-3633.38208	553.89966	315.28311	-3643.84814	482.47702	306.13544	-3643.24292	479.96075	195.03630	-3629.25757	378.13220	319.21024	-3652.33765	339.00098	321.55475	-3681.43042	405.04956	312.54822	-3698.10571	366.63879	318.46786	-3769.77368	107.81992	279.08188	-3788.80884	133.70218	201.08528	0.00000	0.00000	0.00000	-3895.26709	115.69595	304.91534	-3920.42944	159.44116	258.13821	-3908.64282	143.42314	217.06300	-3355.55688	998.87537	90.06783	-3537.03760	953.03949	36.57138	0.00000	0.00000	0.00000	-3341.94849	552.54706	-2.92793	-3404.15479	579.36987	8.95285	-3387.86548	538.18384	5.85203	-3323.44336	438.69565	26.98136	-3327.63501	441.40094	116.28057	-3309.62402	276.06058	55.71380	-3289.72998	233.45877	52.14157	-3255.54175	297.00360	42.65117	-3240.72803	252.30107	45.51760	-3185.23389	112.98436	43.01471	-3199.80933	116.74342	123.95053	-3125.22632	98.53130	89.15199	-3325.51562	56.38189	115.77308	-3341.75244	65.31824	76.29248	-3314.22998	54.29345	27.90004
682	5.67500	-3362.95630	976.40082	222.87469	-3555.63989	923.36963	292.87119	-3577.84302	565.35046	325.38513	-3595.11182	530.58331	317.73340	-3632.85400	592.60724	319.93661	-3646.23413	552.48315	314.53543	-3656.07202	480.62817	305.60843	-3655.79688	478.69012	194.66557	-3641.22412	376.36877	318.80850	-3660.39111	338.34930	320.11642	-3693.46289	402.88986	312.07196	-3709.82178	364.44772	317.96335	-3779.17139	106.36207	278.58701	-3798.58350	130.99178	200.33421	0.00000	0.00000	0.00000	-3904.96021	112.27318	303.68259	-3930.21924	155.10713	256.36987	-3918.37939	138.86626	215.53967	-3366.47974	997.38190	90.86886	-3547.87744	952.15204	36.34998	0.00000	0.00000	0.00000	-3351.14941	551.70398	-3.56134	-3412.65649	577.78943	8.59523	-3396.63916	537.24207	4.62062	-3329.81396	438.32242	26.69658	-3333.95776	441.07391	115.98635	-3312.26709	274.90338	56.08903	-3292.98462	233.64552	51.94019	-3259.96875	297.75934	42.32431	-3244.07568	253.22859	45.32016	-3184.45850	112.57527	40.80545	-3200.62866	117.61295	123.87354	-3127.76294	99.27032	89.16648	-3325.84497	56.29172	115.78004	-3342.15234	65.06733	76.31676	-3314.55103	54.23923	27.86313
683	5.68333	-3374.38403	974.22467	223.46075	-3567.31445	921.01514	292.64566	-3591.52344	564.22168	325.05002	0.00000	0.00000	0.00000	-3646.14893	591.39624	318.97375	-3659.67505	551.34003	313.48511	-3668.83838	478.96503	304.72195	-3668.32349	477.21060	193.99255	-3652.93994	374.65247	318.29535	-3675.24487	335.15982	320.51837	-3705.62500	400.55170	311.14633	-3721.44702	362.01450	317.13205	-3785.71313	104.53038	277.88647	-3805.85986	127.07962	199.28239	0.00000	0.00000	0.00000	-3911.53833	106.38741	302.27347	-3938.48242	146.53238	254.10056	-3925.97900	130.96794	213.72624	-3377.70898	995.73535	91.57898	-3559.05005	951.27509	36.23596	0.00000	0.00000	0.00000	-3358.82910	551.23291	-3.98060	-3421.59985	576.20691	8.22046	-3404.70557	535.92023	4.45065	-3336.42773	437.97031	26.34701	-3342.23975	439.94879	117.11850	-3317.57910	275.94022	55.28893	-3296.51562	233.99420	51.76274	-3264.34375	298.49561	41.86465	-3247.96851	254.28745	45.06324	-3185.36353	113.61069	40.64682	-3201.54541	118.62251	123.72171	-3127.47119	101.07632	89.11137	-3326.20996	56.20225	115.76840	-3342.58838	64.86707	76.28944	-3314.88477	54.27623	27.83340
684	5.69167	-3386.10156	972.06104	223.88089	-3579.21118	918.73828	292.66153	-3603.86279	563.92987	325.34039	0.00000	0.00000	0.00000	-3660.21558	589.67242	317.57394	-3673.38110	550.32355	312.12326	-3682.19238	477.55478	303.49976	-3680.72534	475.41962	192.95209	-3664.48462	373.14072	317.71710	-3686.36353	333.36914	319.98538	-3717.96851	398.05713	309.69492	-3732.91870	359.49982	315.91797	-3790.03882	101.42410	276.72351	-3812.34521	123.13271	196.37454	0.00000	0.00000	0.00000	-3916.22681	97.69272	300.97729	-3944.44873	135.88431	252.41193	-3931.77197	120.85433	212.17441	-3384.84155	994.79749	90.83279	-3570.53906	950.24335	36.16712	0.00000	0.00000	0.00000	-3367.28662	550.52118	-4.31386	-3430.56274	574.43292	7.97688	-3412.96826	534.55835	4.20060	-3343.05835	437.57114	26.00573	-3348.83569	439.60257	116.85253	-3321.88257	276.04984	55.01453	-3299.83838	234.16388	51.51675	-3268.93774	299.16953	41.57670	-3251.75049	255.30728	44.76877	-3188.00220	116.15845	42.51740	-3202.59668	119.77660	123.66228	-3127.78638	103.23943	88.66900	-3326.59644	56.16512	115.76205	-3343.03784	64.54582	76.29976	-3315.26831	54.30264	27.81250
685	5.70000	-3397.81934	969.91492	224.10136	-3590.94604	916.37524	292.73328	-3617.69678	562.99658	324.60669	0.00000	0.00000	0.00000	-3674.19922	588.78296	315.99481	-3687.33643	549.38843	310.50702	-3695.70312	476.31219	301.88306	-3692.96680	473.50531	191.72414	-3675.81226	371.66467	317.16312	-3698.57227	331.42184	320.38657	-3730.25317	395.51669	307.78122	-3744.88086	355.45300	311.48560	-3794.27222	98.03727	275.68692	-3817.02124	118.66322	195.33481	0.00000	0.00000	0.00000	-3920.80103	89.11595	299.72104	-3949.58667	125.89396	250.60892	-3936.83813	111.34447	210.65462	-3400.81079	992.57983	92.22829	-3582.15283	949.13983	36.25484	0.00000	0.00000	0.00000	-3375.98706	549.99512	-4.55200	-3439.22974	572.38898	7.64854	-3421.23096	533.04126	4.01505	-3349.77441	437.10608	25.82108	-3355.65308	439.15668	116.65189	-3328.27173	279.56143	53.47364	-3303.52612	234.56421	51.40089	-3273.79590	299.95999	41.33725	-3256.25000	258.16345	45.19371	-3188.90820	117.39146	42.42203	-3203.64087	120.88905	123.64172	-3130.41406	104.47651	88.67385	-3326.97559	56.12133	115.76588	-3343.48608	64.31541	76.31159	-3315.71704	54.32792	27.81982
